<?xml version="1.0" encoding="UTF-8" standalone="no"?>
<svg
   width="453.92999"
   height="454"
   viewBox="0 0 453.92998 454"
   version="1.1"
   id="svg954"
   xmlns:xlink="http://www.w3.org/1999/xlink"
   xmlns="http://www.w3.org/2000/svg"
   xmlns:svg="http://www.w3.org/2000/svg">
  <defs
     id="defs924">
    <style
       id="style922">.cls-1{fill:#091f62;}.cls-2{fill:#a87b00;}.cls-3{fill:#d4b76a;}.cls-4{fill:#fff;}.cls-5{fill:#0a6826;}</style>
    <radialGradient
       xlink:href="#linearGradient3263"
       id="radialGradient3349"
       gradientUnits="userSpaceOnUse"
       gradientTransform="matrix(0,2.8728591,-1,0,840.62239,-135.45724)"
       cx="199.28125"
       cy="192.84375"
       fx="199.28125"
       fy="192.84375"
       r="53.6875" />
    <linearGradient
       id="linearGradient3263">
      <stop
         style="stop-color:#f7f7f7"
         offset="0"
         id="stop3265" />
      <stop
         style="stop-color:#e1e1e1"
         offset="1"
         id="stop3267" />
    </linearGradient>
    <radialGradient
       xlink:href="#linearGradient3153"
       id="radialGradient3328"
       gradientUnits="userSpaceOnUse"
       gradientTransform="matrix(-0.8695893,0.8695893,-1.9614862,-1.9614862,1132.4598,417.00427)"
       cx="289.42923"
       cy="209.66924"
       fx="289.42923"
       fy="209.66924"
       r="92.5" />
    <linearGradient
       id="linearGradient3153">
      <stop
         style="stop-color:#ffffff"
         offset="0"
         id="stop3155" />
      <stop
         style="stop-color:#ffffff;stop-opacity:0"
         offset="1"
         id="stop3157" />
    </linearGradient>
    <radialGradient
       xlink:href="#linearGradient3153"
       id="radialGradient2053"
       gradientUnits="userSpaceOnUse"
       gradientTransform="matrix(-0.8695893,0.8695893,-1.9614862,-1.9614862,681.5104,178.1413)"
       cx="289.42923"
       cy="209.66924"
       fx="289.42923"
       fy="209.66924"
       r="92.5" />
    <radialGradient
       xlink:href="#linearGradient3153"
       id="radialGradient2061"
       gradientUnits="userSpaceOnUse"
       gradientTransform="matrix(-0.8695893,0.8695893,-1.9614862,-1.9614862,681.5104,178.1413)"
       cx="289.42923"
       cy="209.66924"
       fx="289.42923"
       fy="209.66924"
       r="92.5" />
    <filter
       id="filter3315"
       x="-0.024"
       y="-0.024"
       width="1.048"
       height="1.048">
      <feGaussianBlur
         stdDeviation="3.7"
         id="feGaussianBlur3317" />
    </filter>
  </defs>
  <g
     id="Layer_1-2"
     data-name="Layer 1">
    <g
       id="g2720"
       transform="matrix(1.2248752,0,0,1.222697,-566.89384,-306.85727)">
      <g
         id="vinyl"
         transform="matrix(0.05502136,1.000264,-0.99670956,0.05502136,1047.7486,-234.94697)">
        <path
           id="path3191"
           d="m 647.77864,252.04972 c -102.12,0 -185,82.88 -185,185 0,102.12 82.88,185 185,185 102.12,0 185,-82.88 185,-185 0,-102.12 -82.88,-185 -185,-185 z m 0,179.8125 c 2.86645,0 5.18749,2.32105 5.1875,5.1875 0,2.86645 -2.32105,5.18749 -5.1875,5.1875 -2.86645,0 -5.18749,-2.32105 -5.1875,-5.1875 0,-2.86645 2.32105,-5.18749 5.1875,-5.1875 z" />
        <path
           id="path3271"
           d="m 647.77864,369.70597 c -37.15925,0 -67.34375,30.1845 -67.34375,67.34375 0,37.15925 30.1845,67.34375 67.34375,67.34375 37.15925,0 67.34375,-30.1845 67.34375,-67.34375 0,-37.15925 -30.1845,-67.34375 -67.34375,-67.34375 z m 0,62.90625 c 2.45408,0 4.4375,1.98342 4.4375,4.4375 0,2.45408 -1.98342,4.4375 -4.4375,4.4375 -2.45408,0 -4.4375,-1.98342 -4.4375,-4.4375 0,-2.45408 1.98342,-4.4375 4.4375,-4.4375 z"
           style="fill:#333333" />
        <path
           id="path3176"
           d="m 647.77864,253.83097 c 101.15637,0 183.21875,82.06238 183.21875,183.21875 2e-5,101.15637 -82.06238,183.21875 -183.21875,183.21875 -101.15637,0 -183.21875,-82.06238 -183.21875,-183.21875 0,-101.15637 82.06238,-183.21875 183.21875,-183.21875 z"
           style="fill:none;stroke:#000000;stroke-width:3.562" />
        <use
           height="100%"
           width="100%"
           transform="rotate(180,647.82356,436.23309)"
           id="light1"
           xlink:href="#path3193"
           y="0"
           x="0" />
        <path
           id="path3193"
           d="m 557.387,438.86297 c 0,-51.65143 41.91107,-93.59375 93.5625,-93.59375 v -87.84375 c -100.14857,0 -181.43751,81.28892 -181.4375,181.4375 z"
           style="fill:url(#radialGradient3328)" />
        <path
           id="path3215"
           d="m 647.77864,369.73722 c 37.16701,0 67.3125,30.14548 67.3125,67.3125 0,37.16701 -30.14549,67.31445 -67.3125,67.31445 -37.16701,0 -67.31445,-30.14744 -67.31445,-67.31445 0,-37.16702 30.14744,-67.3125 67.31445,-67.3125 z"
           style="fill:none;stroke:#000000;stroke-width:3" />
        <path
           id="path3223"
           d="m 685.74144,399.08693 c -20.95262,-20.9526 -54.97299,-20.95261 -75.9256,0 -20.9526,20.95262 -20.9526,54.97299 0,75.92559 20.95262,20.9526 54.97299,20.95261 75.9256,0 20.9526,-20.95261 20.9526,-54.97298 0,-75.92559 z m -34.29468,34.29468 c 2.02688,2.02689 2.02688,5.30934 0,7.33623 -2.02689,2.02689 -5.30934,2.02688 -7.33624,0 -2.02688,-2.02688 -2.02688,-5.30934 0,-7.33623 2.02689,-2.02688 5.30934,-2.02688 7.33624,0 z"
           style="fill:url(#radialGradient3349)" />
        <path
           id="path3230"
           d="m 691.72975,393.09862 c -7.06177,-7.06176 -15.40617,-12.05335 -24.2847,-15.00392 l -1.23744,3.71231 c 8.31532,2.76444 16.12455,7.46249 22.7379,14.07584 8.05626,8.05626 13.25594,17.88433 15.60055,28.24008 l 3.82279,-0.86178 c -2.50205,-11.05558 -8.03761,-21.56103 -16.6391,-30.16253 z"
           style="opacity:0.742574;fill:#ffffff" />
        <path
           id="path3232"
           d="m 590.3925,427.30491 -3.88908,-0.66291 c -3.23715,19.17313 2.53847,39.5732 17.32411,54.35884 14.74595,14.74593 35.07597,20.5264 54.20416,17.34621 l -0.64082,-3.86699 c -17.92511,2.98388 -36.96183,-2.44619 -50.7791,-16.26346 -13.85228,-13.85228 -19.25338,-32.94694 -16.21927,-50.91169 z"
           style="opacity:0.742574;fill:#ffffff" />
      </g>
    </g>
    <path
       class="cls-3"
       d="m 444.52,226.93 -0.29,11.18 -0.84,11.08 -1.39,10.87 -1.92,10.75 -2.43,10.54 -2.93,10.32 -3.42,10.11 -3.9,9.9 -4.35,9.57 -4.8,9.36 -5.25,9.14 -5.66,8.82 -6.06,8.6 -6.46,8.18 -6.82,7.95 -7.21,7.53 -7.54,7.17 -7.88,6.77 -8.23,6.56 -8.53,6 -8.82,5.7 -9.11,5.16 -9.38,4.84 -9.63,4.41 -9.89,3.87 -10.11,3.44 -10.32,2.91 -10.52,2.36 -10.71,1.98 -10.9,1.4 -11,0.86 -11.2,0.32 C 106.83,444.58 9.45,347.03 9.45,226.9 9.45,106.77 106.79,9.36 227,9.36 c 120.21,0 217.52,97.44 217.52,217.57 z"
       id="path930"
       style="fill:none;fill-opacity:1;stroke:#cc396f;stroke-opacity:1" />
    <path
       class="cls-1"
       d="M 435.73,226.82 C 435.73,111.53 342.26,18.07 227,18.07 c -115.26,0 -208.73,93.36 -208.73,208.76 0,115.4 93.47,208.86 208.75,208.86 l 10.75,-0.32 10.59,-0.75 10.45,-1.4 10.28,-1.83 10.09,-2.26 9.91,-2.8 9.7,-3.33 9.49,-3.81 9.24,-4.2 9,-4.52 8.73,-5.05 8.47,-5.49 8.18,-5.8 7.89,-6.13 7.6,-6.64 7.25,-6.88 6.91,-7.21 6.56,-7.64 6.19,-7.85 5.82,-8.17 5.43,-8.5 5,-8.71 4.61,-9 4.17,-9.25 3.75,-9.47 3.28,-9.68 2.8,-9.89 2.34,-10.11 1.84,-10.34 1.32,-10.44 0.8,-10.64 z"
       id="path932"
       style="fill:none;fill-opacity:1;stroke:#2776ae;stroke-opacity:1" />
    <path
       class="cls-4"
       d="m 226.87573,25.470959 -10.26472,0.313594 -10.12353,0.755478 -9.99646,1.225868 -9.88349,1.69626 -9.60111,2.266432 -9.45993,2.850857 -9.27637,3.207215 -9.05045,3.535063 -8.83868,3.976946 -8.61276,4.447337 -8.34451,4.78944 -8.09034,5.217069 -7.82208,5.701715 -7.539697,5.972546 -7.243193,6.28614 -6.960805,6.756532 -6.607824,6.899075 -6.226604,7.355212 -5.91598,7.668802 -5.562997,7.81135 -5.181777,8.28174 -4.800555,8.42429 -4.419337,8.55257 -3.995757,8.88042 -3.572178,9.20827 -3.134481,9.42208 -2.682665,9.65015 -2.244965,9.66441 -1.736673,9.978 -1.284855,10.12054 -0.748321,10.26309 -0.282387,10.27734 c 0,111.29747 89.276231,201.59838 199.491351,201.59838 a 199.61842,201.5271 0 0 0 0,-403.039957 z"
       id="path934"
       style="fill:none;fill-opacity:1;stroke:#ce43bf;stroke-width:1;stroke-miterlimit:4;stroke-dasharray:none;stroke-opacity:1" />
    <path
       class="cls-3"
       d="m 122.79,300.82 -2.69,-4 -2.54,-4.09 -2.4,-4.19 -2.24,-4.31 -2.09,-4.4 -1.94,-4.41 -1.76,-4.52 -1.6,-4.63 -1.42,-4.73 -1.25,-4.73 -1.08,-4.95 -0.88,-4.84 -0.69,-4.94 -0.5,-5.06 -0.3,-5 -0.11,-5.17 H 72.54 l 0.55,-1.07 26.3,-2.37 a 128.12,128.12 0 0 1 49.41,-97.76 71.83,71.83 0 0 1 -11.35,-12.05 8.65,8.65 0 0 1 -1.59,-8.06 148.37,148.37 0 0 0 22.55,13.33 c 1.73,-1.07 3.45,-2.25 5.22,-3.22 v -0.11 h 0.2 a 127.6,127.6 0 0 1 63.23,-17.1 V 72.09 l 1.1,0.54 2,25.81 c 68.62,1.37 124.15,56.65 125.87,125.05 l 25.13,2.26 0.55,1.08 H 356.12 A 128.57,128.57 0 0 1 230.54,355.24 l -2.22,25.7 -1.13,0.54 v -26.24 c -42.69,-0.11 -81.17,-22.16 -104.4,-54.42 z"
       id="path936"
       style="fill:#cc396f;fill-opacity:1" />
    <path
       class="cls-3"
       d="m 101.91,226.82 0.16,6.45 0.49,6.46 0.79,6.23 1.1,6.14 1.41,6.13 1.69,5.91 2,5.81 2.25,5.7 2.51,5.59 2.76,5.38 3,5.27 3.26,5.16 3.5,4.84 3.72,4.73 3.95,4.63 4.15,4.3 4.34,4.19 4.55,3.88 4.75,3.76 4.92,3.55 5.09,3.23 5.25,3 5.36,2.84 5.57,2.48 5.68,2.26 5.83,1.93 6,1.72 6.07,1.4 6.15,1.04 6.27,0.86 6.37,0.43 6.45,0.21 A 125.46,125.46 0 1 0 101.91,226.82 Z"
       id="path938"
       style="fill:#cc396f;fill-opacity:1" />
    <path
       class="cls-5"
       d="m 104.8,243.06 0.91,1.72 1,1.73 1,1.61 1.11,1.61 1.18,1.61 1.28,1.66 1.31,1.61 1.38,1.51 1.44,1.5 1.5,1.51 1.57,1.5 1.63,1.51 1.69,1.4 1.74,1.4 1.8,1.39 1.87,1.25 a 133.47,133.47 0 0 1 -4.74,-40.76 h -18.73 a 129.88,129.88 0 0 0 1.06,16.24 z m 22.19,55.94 1.39,1.72 1.48,1.72 1.55,1.72 1.64,1.61 1.71,1.62 1.78,1.61 1.85,1.51 1.93,1.5 2,1.51 2.05,1.4 2.13,1.39 2.19,1.29 2.24,1.4 2.28,1.17 2.36,1.3 2.42,1.18 a 133.76,133.76 0 0 1 -28.78,-48.51 c -9.16,-5.81 -16.77,-12.37 -22.4,-19.79 A 123.06,123.06 0 0 0 126.99,299 Z m 50.62,41.3 -1.47,-1.18 -1.45,-1.08 -1.43,-1.18 -1.42,-1.19 -1.39,-1.07 -1.38,-1.18 -1.34,-1.19 -1.33,-1.29 a 119.7,119.7 0 0 1 -16,-7.2 125.24,125.24 0 0 0 27.21,16.55 z m 17.4,6.13 1.88,0.54 1.89,0.43 1.9,0.43 1.91,0.43 1.92,0.43 1.94,0.32 1.93,0.32 2,0.32 q -4,-4.83 -7.57,-9.67 a 169.12,169.12 0 0 1 -25.11,-5.27 152.39,152.39 0 0 0 17.31,11.71 z m 32.2,4.4 v -9.25 0 c -6.39,0 -12.65,-0.43 -18.83,-1 q 3.78,4.84 7.85,9.68 c 3.6,0.35 7.26,0.57 10.98,0.57 z m -46.63,-56.47 1.14,2.58 1.19,2.58 1.3,2.59 1.29,2.58 1.33,2.58 1.38,2.58 1.44,2.58 1.46,2.57 1.54,2.69 1.56,2.59 1.64,2.58 1.68,2.58 1.75,2.56 1.77,2.59 1.83,2.58 1.87,2.58 a 191.43,191.43 0 0 0 22.46,1.31 v 0 -37.75 a 217,217 0 0 1 -46.61,-4.95 z m 46.63,-63 v 0 a 221.75,221.75 0 0 1 -45.08,-4.52 h -13.74 c -1.39,20.76 2,41.73 10.2,62.59 a 214.14,214.14 0 0 0 48.62,5.47 z m -9.74,-128.09 0.51,0.32 0.53,0.43 0.55,0.32 0.55,0.43 0.57,0.43 0.58,0.33 0.58,0.43 0.6,0.43 0.6,0.53 0.63,0.43 0.62,0.43 0.63,0.54 0.65,0.54 0.65,0.43 0.65,0.54 0.67,0.53 v -7.52 c -3.21,-0.02 -6.4,0.16 -9.55,0.41 z m -38,9.36 2.81,-0.43 2.79,-0.33 2.74,-0.32 2.72,-0.21 2.7,-0.22 2.65,-0.21 2.65,-0.11 2.6,-0.11 2.58,-0.11 h 7.59 l 2.47,0.11 2.44,0.11 2.42,0.21 2.4,0.22 a 64.78,64.78 0 0 0 -11,-7.1 122.54,122.54 0 0 0 -30.58,8.48 z m -16.18,8.37 2.23,1 2.23,1 2.22,0.86 2.22,0.75 2.19,0.86 2.18,0.75 2.18,0.65 2.15,0.75 a 118.86,118.86 0 0 1 30.32,-12.54 191.33,191.33 0 0 0 -45.79,4.51 23.21,23.21 0 0 1 -2.13,1.41 z m -10.84,7.53 -0.27,0.11 -0.28,0.22 -0.27,0.21 -0.27,0.22 -0.26,0.21 -0.27,0.22 -0.13,0.1 -0.14,0.11 -0.13,0.11 -0.12,0.11 c 14.11,11.4 31.54,15.81 32.89,16 a 1.52,1.52 0 0 0 -0.21,-1 c -13.9,-5.98 -23.4,-11.36 -30.54,-16.63 z m -22.81,76.58 -0.41,2 -0.39,1.94 -0.34,1.93 -0.29,2.02 -0.28,2 -0.26,1.94 -0.22,2 -0.19,1.94 27.1,-2.37 A 107.5,107.5 0 0 1 129.64,205.1 Z m 48.77,-32.17 -0.15,-0.22 -0.15,-0.21 -0.14,-0.32 -0.13,-0.22 -0.13,-0.21 -0.11,-0.22 -0.12,-0.21 -0.12,-0.22 -0.11,-0.21 -0.1,-0.22 -0.19,-0.43 -0.18,-0.43 -0.16,-0.43 -0.15,-0.32 -0.13,-0.43 -0.13,-0.33 -0.12,-0.43 -0.11,-0.32 -0.11,-0.32 -0.09,-0.32 -0.1,-0.33 a 52.9,52.9 0 0 0 19.91,4.63 0.92,0.92 0 0 0 -0.21,-0.43 c -0.33,-0.11 -1.47,-0.32 -1.47,-0.32 -17.39,-3.55 -29.74,-12.05 -32.31,-14.95 a 13.44,13.44 0 0 1 -2.76,-5.06 112.69,112.69 0 0 0 -24,37.54 117.61,117.61 0 0 0 -4.07,12.58 c 8.78,6.88 20.33,12.69 33.82,17.1 h 0.55 a 143.23,143.23 0 0 1 2.76,-15.27 153.76,153.76 0 0 1 10.51,-29.47 z m 30.2,-38.39 2.43,0.54 2.39,0.53 2.37,0.54 2.32,0.54 2.28,0.64 2.25,0.54 2.2,0.65 2.16,0.64 v -22.69 h -0.51 a 182.61,182.61 0 0 0 -17.89,18.07 z m -4.49,-1 1,-1.19 1,-1.07 1,-1.08 0.94,-1.07 1,-1.08 0.95,-1 0.94,-1.07 1,-1 0.95,-1 0.93,-1 0.93,-1 0.93,-0.86 0.92,-0.86 0.92,-1 0.91,-0.86 0.9,-0.86 a 120.46,120.46 0 0 0 -32.14,11.5 c 5.7,1.84 11.42,3.24 16.92,4.53 z m -43.61,15 1.27,0.86 1.29,0.76 1.3,0.75 1.32,0.65 1.32,0.75 1.31,0.54 1.31,0.64 1.32,0.54 1.3,0.54 1.28,0.53 1.27,0.43 1.24,0.44 1.23,0.43 1.19,0.32 1.16,0.43 1.13,0.32 1.09,0.22 1,0.32 1,0.21 0.95,0.22 0.89,0.21 0.84,0.22 0.77,0.11 0.71,0.21 0.63,0.11 0.57,0.11 0.48,0.1 h 0.41 l 0.32,0.11 h 0.44 c 0,0 -0.13,-0.64 -0.34,-0.64 -13.82,-4 -22.94,-8 -29.2,-11.94 0.09,0.21 0.21,0.21 0.34,0.32 -0.38,0.51 -0.76,0.94 -1.14,1.26 z"
       id="path942"
       style="fill:#92cadf;fill-opacity:1" />
    <path
       class="cls-5"
       d="m 214.62,203.06 h -0.53 l -0.28,-0.11 h -0.72 l -0.43,-0.11 h -0.45 l -0.52,-0.11 -0.55,-0.1 -0.6,-0.11 -0.62,-0.11 -0.66,-0.11 -0.67,-0.1 -0.7,-0.22 -0.72,-0.22 -0.75,-0.1 -0.75,-0.22 -0.76,-0.21 -0.77,-0.33 -0.77,-0.21 -0.77,-0.32 -0.77,-0.33 -0.77,-0.32 -0.76,-0.32 -0.74,-0.43 -0.73,-0.43 -0.72,-0.43 -0.69,-0.43 -0.66,-0.54 -0.65,-0.54 c -8.49,-6.45 -7.85,-13.55 -7.85,-13.55 a 68.21,68.21 0 0 0 20.12,5.49 1.71,1.71 0 0 0 -0.46,-1 71.76,71.76 0 0 1 -23.45,-8.82 23.55,23.55 0 0 1 -3.15,-2.58 l 0.09,0.21 a 147.77,147.77 0 0 0 -9.54,27 c -1.09,4.62 -1.88,9.25 -2.52,13.87 l 38.74,-3.44 c -7,-6 -7.14,-12.37 -7.14,-12.37 10.77,4.76 13.67,1.65 13.67,1.65 z m -79.41,74.63 1.33,3.31 1.42,3.33 1.52,3.33 1.62,3.23 1.73,3.23 1.83,3.22 1.94,3.12 2,3.12 2.14,3.12 2.26,3.12 2.35,3 2.48,2.9 2.57,3 2.69,2.79 2.79,2.8 2.91,2.79 a 151.69,151.69 0 0 0 30.16,7.75 211.51,211.51 0 0 1 -23.27,-41.62 164,164 0 0 1 -40.47,-15.54 z m 38.44,10.43 -1.39,-3.76 -1.28,-3.87 -1.17,-3.87 -1.07,-3.77 -1,-3.87 -0.86,-3.87 -0.74,-3.77 -0.64,-3.87 -0.54,-3.87 -0.43,-3.76 -0.32,-3.84 -0.22,-3.88 -0.12,-3.76 v -3.87 l 0.1,-3.77 0.2,-3.87 h -37.26 a 128.45,128.45 0 0 0 6,44.63 c 11.51,6.96 25.3,12.66 40.75,16.64 z m -26,-155.83 -2.68,2.36 -2.61,2.37 -2.55,2.58 -2.47,2.47 -2.41,2.69 -2.32,2.69 -2.26,2.8 -2.14,2.75 -2.09,2.91 -2,2.9 -1.93,3 -1.88,3.19 -1.75,3.12 -1.67,3.12 -1.57,3.23 -1.48,3.33 c 2.1,7.1 6.63,13.66 13.15,19.68 1.05,-3.76 2.27,-7.42 3.65,-11.08 a 118.81,118.81 0 0 1 27.3,-41.51 37.16,37.16 0 0 1 -8.56,-8.6 10.56,10.56 0 0 1 -1.73,-4 z m -43.86,90.77 19,-1.72 a 126.73,126.73 0 0 1 2.94,-19.25 52.15,52.15 0 0 1 -14.37,-18.29 124.45,124.45 0 0 0 -7.57,39.26 z m 127.22,-115.3 0.44,-0.32 0.42,-0.32 0.43,-0.32 0.4,-0.33 0.42,-0.32 0.41,-0.32 0.4,-0.32 0.41,-0.22 0.39,-0.32 0.38,-0.22 0.39,-0.32 0.38,-0.22 0.36,-0.32 0.37,-0.21 0.35,-0.22 0.35,-0.21 q -3.34,-0.33 -6.68,-0.33 z m 6.64,242.64 1,-1.18 1,-1.19 1,-1.29 1,-1.18 1,-1.18 1,-1.19 1.9,-2.47 c -4.54,0.43 -9.12,0.65 -13.77,0.75 l -0.8,9.36 c 2.23,-0.11 4.45,-0.22 6.67,-0.43 z m 21.8,-3.66 2.27,-1.4 2.22,-1.29 2.19,-1.4 2.14,-1.5 2.11,-1.4 2.07,-1.51 2,-1.5 2,-1.51 a 177.2,177.2 0 0 1 -25,4.84 c -2.4,3.23 -4.91,6.46 -7.56,9.68 a 123.64,123.64 0 0 0 15.56,-3.01 z m 44,-21.83 -1.9,1 -1.92,1 -2,0.86 -2,0.86 -2,0.86 -2.06,0.86 -2.08,0.75 -2.11,0.86 c -3.53,3.12 -7.23,6.13 -11.14,9 a 124,124 0 0 0 27.2,-16.05 z M 326.91,301 v 0.11 a 123.65,123.65 0 0 0 22,-48.19 c -5.76,8 -13.78,15.17 -23.57,21.41 a 134.4,134.4 0 0 1 -29.75,49.47 c 13.18,-5.89 24.02,-13.63 31.32,-22.8 z m 24,-60.12 0.18,-1.72 0.16,-1.72 0.14,-1.83 0.13,-1.72 0.1,-1.83 0.06,-1.72 v -1.83 -1.72 h -19.47 a 134.71,134.71 0 0 1 -4.79,41 c 10.88,-7.74 19,-16.89 23.4,-26.89 z m -7.15,-57.75 -0.6,1.29 -0.64,1.29 -0.69,1.18 -0.74,1.29 -0.78,1.19 -0.83,1.18 -0.87,1.18 -0.91,1.19 -1,1.18 -1,1.18 -1,1.18 -1.08,1.08 -1.13,1.18 -1.16,1.08 -1.2,1.07 -1.24,1.08 a 132.32,132.32 0 0 1 3,19.36 l 19.79,1.72 a 123.6,123.6 0 0 0 -7.96,-39.87 z m -45.92,-58.51 0.1,0.22 0.08,0.32 0.09,0.32 0.08,0.22 0.06,0.32 0.06,0.32 0.07,0.32 0.05,0.22 0.06,0.32 v 0.32 0.33 0.21 0.33 0.86 c 0,4.41 -1.94,8.38 -5.47,12.15 a 118.06,118.06 0 0 1 30.8,44.74 c 1.38,3.55 2.56,7.21 3.61,10.86 6.81,-6 11.55,-12.69 13.73,-19.89 A 124.62,124.62 0 0 0 297.8,124.65 Z m -8.56,-5.06 -3.1,-0.64 -3.05,-0.54 -3,-0.64 -3,-0.43 -3,-0.43 -2.93,-0.43 -2.9,-0.33 -2.86,-0.32 -2.84,-0.32 -2.81,-0.11 -2.77,-0.22 -2.74,-0.1 -2.71,-0.11 h -5.36 l -2.61,0.11 a 116.69,116.69 0 0 1 46.17,23.44 c 2.82,-2.9 4.41,-6 4.41,-9.25 0,-3.25 -1.71,-6.53 -4.97,-9.65 z m -55.51,21.73 0.92,0.32 0.88,0.33 0.86,0.32 0.85,0.32 0.83,0.32 0.79,0.43 0.79,0.33 0.76,0.32 0.74,0.43 0.72,0.32 0.71,0.33 0.68,0.43 0.67,0.32 0.66,0.43 0.62,0.32 0.61,0.43 0.59,0.32 0.57,0.43 0.56,0.43 0.54,0.33 0.53,0.43 0.5,0.43 1,0.86 0.89,0.75 0.84,0.86 0.77,0.86 0.71,1 c 2.05,-0.43 4.11,-0.75 6.08,-1.18 a 188.4,188.4 0 0 0 -27.35,-32 z m 6.77,98.73 -4.7,54.63 a 217.16,217.16 0 0 0 39.49,-5.05 q 12.46,-31.45 10.41,-62.81 h -13.53 a 210.55,210.55 0 0 1 -40.54,4.41 z m 32.77,54.53 -2.25,0.43 -2.26,0.43 -2.29,0.43 -2.3,0.43 -2.31,0.32 -2.35,0.33 -4.71,0.64 -4.77,0.54 -4.83,0.43 -4.87,0.32 -4.91,0.22 -3.32,37.93 c 5.76,-0.1 11.42,-0.43 16.93,-1.07 a 211.72,211.72 0 0 0 24.2,-41.35 z m 5.29,-1.19 -1.09,2.59 -1.14,2.68 -1.2,2.59 -1.24,2.58 -1.29,2.58 -1.33,2.69 -1.39,2.58 -1.44,2.58 -1.48,2.58 -1.53,2.69 -1.58,2.58 -1.64,2.58 -1.67,2.58 -1.72,2.58 -1.79,2.69 -1.83,2.58 a 164.74,164.74 0 0 0 29.8,-7.09 131.64,131.64 0 0 0 34.27,-50.12 160.33,160.33 0 0 1 -40.75,15.51 z"
       id="globe background"
       style="fill:#92cadf;fill-opacity:1" />
    <text
       xml:space="preserve"
       style="font-style:normal;font-variant:normal;font-weight:normal;font-stretch:normal;font-size:64px;line-height:1.25;font-family:Arial;-inkscape-font-specification:'Arial, Normal';font-variant-ligatures:normal;font-variant-caps:normal;font-variant-numeric:normal;font-variant-east-asian:normal;fill:#fabe29;fill-opacity:0.827451;stroke:none"
       id="Mable"
       transform="rotate(-134.70612,226.33356,227.94347)"><textPath
         xlink:href="#path76337"
         id="textPath76441"><tspan
           id="tspan49798"
           style="font-style:normal;font-variant:normal;font-weight:normal;font-stretch:normal;font-size:64px;font-family:Arial;-inkscape-font-specification:'Arial, Normal';font-variant-ligatures:normal;font-variant-caps:normal;font-variant-numeric:normal;font-variant-east-asian:normal">MABLE</tspan></textPath></text>
    <path
       class="cls-5"
       d="m 290.16,226.82 0.19,3.87 0.09,3.77 v 3.87 l -0.12,3.87 -0.24,3.87 -0.32,3.77 -0.44,3.87 -0.54,3.87 -0.66,3.87 -0.75,3.77 -0.85,3.87 -1,3.87 -1.07,3.87 -1.17,3.87 -1.28,3.77 -1.39,3.87 c 15.54,-4 29.49,-9.68 41,-16.78 a 128.84,128.84 0 0 0 6.14,-44.74 z m 9.91,-8.28 27.31,2.37 A 124.38,124.38 0 0 0 324.99,205 109.62,109.62 0 0 1 300.07,218.54 Z m -33.65,-63.24 1.58,2.58 1.55,2.59 1.52,2.68 1.47,2.69 1.44,2.8 1.4,2.8 1.35,2.9 1.3,2.9 1.26,2.91 1.21,3 1.15,3.12 1.08,3 1,3.22 1,3.12 0.9,3.23 0.84,3.33 a 136.25,136.25 0 0 1 2.8,15.38 h 0.05 c 13.7,-4.51 25.5,-10.43 34.49,-17.42 a 128.08,128.08 0 0 0 -4,-12.37 113.12,113.12 0 0 0 -30,-43.34 c -5.6,4.43 -13.6,8.19 -23.39,10.88 z m -2.52,-4 1.75,-0.43 1.7,-0.54 1.65,-0.43 1.62,-0.53 1.58,-0.65 1.52,-0.54 1.5,-0.54 1.44,-0.64 1.39,-0.65 1.34,-0.64 1.3,-0.65 1.25,-0.75 1.18,-0.64 1.14,-0.76 1.09,-0.64 1,-0.76 c -13.49,-11.07 -30.37,-19.57 -50.91,-23.76 a 190.9,190.9 0 0 1 28.46,33.57 z m -8.53,62.7 0.58,0.11 0.56,0.11 0.56,0.11 h 0.54 l 0.53,0.1 0.51,0.11 0.5,0.11 h 0.48 l 0.48,0.11 0.45,0.1 H 261 l 0.42,0.11 h 0.41 l 0.38,0.11 h 0.37 l 0.35,0.11 h 0.66 l 0.3,0.1 h 0.78 l 0.21,0.11 h 0.76 l 0.09,0.11 h 0.11 l 18.91,1.61 a 135,135 0 0 0 -2.54,-13.85 156.54,156.54 0 0 0 -20.17,-46.79 c -2,0.43 -4.12,0.86 -6.22,1.29 9.85,21.23 -20.7,49.59 -0.45,56.23 z m -11.09,-110 -0.24,0.11 -0.25,0.11 -0.26,0.1 -0.27,0.11 -0.28,0.22 -0.28,0.1 -0.29,0.22 -0.3,0.11 -0.3,0.21 -0.31,0.11 -0.64,0.43 -0.67,0.43 -0.69,0.43 -0.73,0.43 -0.75,0.54 -0.77,0.53 -0.79,0.54 -0.81,0.54 -0.84,0.65 -0.86,0.64 -0.88,0.65 a 174.37,174.37 0 0 1 43.1,1.5 118.16,118.16 0 0 0 -31.89,-8.71 z"
       id="globe east background"
       style="fill:#92cadf;fill-opacity:1" />
    <path
       class="cls-2"
       d="m 209.71,161.86 v 0 -0.1 h 0.08 c 0,0 26.63,0.21 32.64,20.54 a 2.84,2.84 0 0 1 0.09,1.18 c -0.09,0.54 -0.17,1.83 -0.17,1.83 0,0 -2.94,-16.13 -27.93,-20.11 a 8.31,8.31 0 0 1 -4.71,-3.34 z m 7.31,13.14 v 0 -0.11 0 -0.1 0 c 0,0 19.19,1.81 22.44,16.65 a 2.16,2.16 0 0 1 0,0.86 l -0.13,1.29 c 0,0 -1.81,-11.59 -18.49,-15.59 0,0 -3.02,-0.54 -3.82,-3 z"
       id="wing accents"
       style="fill:#fabe2a;fill-opacity:1" />
    <text
       xml:space="preserve"
       style="font-style:normal;font-variant:normal;font-weight:normal;font-stretch:normal;font-size:64px;line-height:2.45;font-family:'Blackadder ITC';-inkscape-font-specification:'Blackadder ITC, Normal';font-variant-ligatures:normal;font-variant-caps:normal;font-variant-numeric:normal;font-variant-east-asian:normal;writing-mode:lr-tb;direction:ltr;fill:#fabe2a;fill-opacity:1;stroke:none"
       id="Quaerimus Oriri"
       transform="rotate(-118.80805,226.68204,227.71795)"><textPath
         xlink:href="#ellipse89506"
         id="textPath89508"><tspan
           id="tspan3276"
           style="font-style:normal;font-variant:normal;font-weight:normal;font-stretch:normal;font-size:64px;font-family:'Blackadder ITC';-inkscape-font-specification:'Blackadder ITC, Normal';font-variant-ligatures:normal;font-variant-caps:normal;font-variant-numeric:normal;font-variant-east-asian:normal;writing-mode:lr-tb;direction:ltr;fill:#fabe2a;fill-opacity:1">Quaerimus Oriri</tspan></textPath></text>
    <ellipse
       style="fill:none;fill-opacity:1;stroke:none;stroke-width:1.22993;stroke-miterlimit:4;stroke-dasharray:none;stroke-opacity:1"
       id="path76337"
       cx="227.6275"
       cy="229.07968"
       rx="138.55386"
       ry="140.78963" />
    <path
       id="ellipse89506"
       style="fill:none;fill-opacity:1;stroke:none;stroke-width:1.61175;stroke-miterlimit:4;stroke-dasharray:none;stroke-opacity:1"
       d="m 220.80664,52.955377 c -4.12654,0.187019 -8.24866,0.431231 -12.35798,0.839928 -4.45421,0.441147 -8.89094,1.034095 -13.30079,1.774903 -4.4721,0.745575 -8.90917,1.670766 -13.31199,2.722109 -4.29676,1.042682 -8.5565,2.223139 -12.76532,3.549673 -4.29458,1.34802 -8.53207,2.857238 -12.71029,4.50029 -4.26764,1.671644 -8.45535,3.521902 -12.58099,5.48613 -4.02635,1.934967 -7.97584,4.011315 -11.84706,6.211578 -3.80448,2.170348 -7.52606,4.470614 -11.156,6.894013 -3.70007,2.468371 -7.30171,5.068519 -10.80313,7.783922 -3.47456,2.694911 -6.84015,5.515375 -10.099816,8.440667 -3.199786,2.86901 -6.286726,5.8515 -9.25335,8.93676 -2.306348,2.36423 -4.515317,4.8158 -6.6725,7.302 -2.826022,3.28005 -5.53891,6.64723 -8.108002,10.11067 -2.59949,3.51376 -5.085381,7.10305 -7.410753,10.78435 -2.326605,3.68909 -4.530716,7.44746 -6.569667,11.28548 -1.997142,3.7543 -3.852843,7.5747 -5.572466,11.44923 -1.738579,3.98455 -3.35683,8.01606 -4.798888,12.10498 -1.283851,3.63661 -2.41756,7.31578 -3.479704,11.01519 -1.099776,4.06284 -2.078276,8.15363 -2.913022,12.27297 -0.820938,4.17573 -1.483738,8.3771 -2.010171,12.59521 -0.517945,4.35507 -0.856942,8.72699 -1.067606,13.10499 -0.153073,4.2102 -0.174384,8.42321 -0.04369,12.6345 0.152372,4.34544 0.489215,8.68269 0.947385,13.00884 0.493493,4.22301 1.126606,8.42991 1.908602,12.61419 0.826577,4.27644 1.815899,8.52267 2.936499,12.739 1.124695,4.06514 2.38105,8.09683 3.780736,12.08555 1.439397,4.05008 3.04298,8.04614 4.768266,11.99526 1.773322,4.01509 3.724496,7.95756 5.784551,11.84838 2.047281,3.79526 4.239423,7.51869 6.54954,11.17688 2.303921,3.59821 4.73272,7.1241 7.28907,10.5672 2.587058,3.463 5.30321,6.83904 8.137808,10.12485 2.770048,3.19287 5.649387,6.30194 8.653245,9.30088 3.0345,3.05728 6.199745,5.99917 9.469463,8.83184 2.55423,2.23831 5.19387,4.3933 7.88716,6.48055 3.38781,2.63413 6.88221,5.14427 10.45796,7.54523 3.65491,2.439 7.39645,4.76112 11.22249,6.95257 3.89847,2.2133 7.86853,4.31372 11.92152,6.26313 4.12515,1.96444 8.31128,3.81653 12.57681,5.49214 4.21256,1.65548 8.48265,3.18153 12.81276,4.53898 4.23777,1.33445 8.52619,2.52441 12.85348,3.56939 4.33669,1.03702 8.70839,1.94387 13.11257,2.68349 4.45909,0.74499 8.94365,1.35203 13.44729,1.79538 4.52237,0.43234 9.059,0.73653 13.60262,0.8587 4.51113,0.12058 9.02624,0.099 13.53476,-0.0837 4.5757,-0.1975 9.1452,-0.53321 13.69335,-1.04571 4.43624,-0.49739 8.85308,-1.14348 13.24073,-1.93505 4.35027,-0.79582 8.67053,-1.73357 12.95174,-2.81161 4.37585,-1.12243 8.71465,-2.37141 12.9977,-3.77727 3.80268,-1.25737 7.5554,-2.6374 11.2754,-4.09835 4.17045,-1.68597 8.27514,-3.51097 12.32423,-5.44336 3.92776,-1.9228 7.78943,-3.96252 11.57906,-6.11937 3.83817,-2.20858 7.58846,-4.55036 11.26054,-6.99851 3.66575,-2.46642 7.23382,-5.06025 10.71044,-7.76058 3.40599,-2.66848 6.71522,-5.44662 9.91764,-8.3321 3.31222,-2.97577 6.48953,-6.08368 9.56572,-9.27771 2.92748,-3.06341 5.74403,-6.2224 8.43542,-9.47412 2.68927,-3.23834 5.26453,-6.56347 7.69323,-9.9815 2.04362,-2.82206 3.97546,-5.71906 5.82115,-8.66004 2.26239,-3.5847 4.38466,-7.24835 6.36922,-10.97663 2.01788,-3.80294 3.89771,-7.67133 5.62275,-11.60052 1.7271,-3.9524 3.32282,-7.95633 4.74384,-12.01608 1.40851,-4.02317 2.67058,-8.09146 3.78035,-12.1969 1.12207,-4.22759 2.10445,-8.48853 2.9055,-12.7807 0.78683,-4.24992 1.42462,-8.52458 1.88576,-12.8168 0.5534,-5.19812 0.89278,-10.41745 0.94273,-15.64225 0.11702,-4.38158 -0.0405,-8.76591 -0.30492,-13.14043 -0.11571,-1.64231 -0.25197,-3.49661 -0.42564,-5.21975 -0.58105,-6.13764 -1.54552,-12.36083 -2.79151,-18.33271 -1.21545,-5.78518 -2.77067,-11.66666 -4.62578,-17.38137 -1.46275,-4.53307 -3.23017,-9.28188 -5.08431,-13.67746 -1.978,-4.69355 -4.17287,-9.30477 -6.56415,-13.82306 -0.8053,-1.49524 -1.71723,-3.1821 -2.61074,-4.7299 -11.39494,-19.98024 -26.93466,-37.83554 -45.47683,-52.260789 -1.56786,-1.219241 -3.32263,-2.545718 -5.00286,-3.759943 -3.42018,-2.478408 -6.82886,-4.783795 -10.44684,-7.046753 -14.00422,-8.793029 -29.47042,-15.845032 -45.55643,-20.737266 -3.96966,-1.216091 -8.01136,-2.302523 -12.12306,-3.271576 -3.22827,-0.757104 -6.35086,-1.412355 -9.63678,-2.009997 -4.8855,-0.896084 -10.00422,-1.623696 -15.03381,-2.142435 -2.45306,-0.250134 -4.93086,-0.461353 -7.45467,-0.621459 -5.88295,-0.391651 -11.98008,-0.489503 -17.95552,-0.31384 -0.48135,0.0085 -0.9627,0.01708 -1.44405,0.02562 z" />
    <path
       class="cls-2"
       d="m 226.06,72.82 -5.64,64.74 6.6,1.94 0.08,-67.22 z M 240.55,240.27 381.16,228 381.7,227 H 72.5 l 0.59,1 140.83,12.27 12.43,140.89 0.88,0.54 V 227 Z m -39.28,-92 v 0 -0.11 0 -0.1 0 -0.06 h 0.08 c 0,0 35,-1 44.1,25.38 a 3.51,3.51 0 0 1 0.09,1.51 c -0.13,0.75 -0.2,2.36 -0.2,2.36 0,0 -3.83,-21.08 -37.86,-25.16 a 9.51,9.51 0 0 1 -6.21,-3.78 z"
       id="path948"
       style="fill:#fabe2a;fill-opacity:1" />
  </g>
</svg>
